<svg preserveAspectRatio="xMidYMid meet" data-bbox="20.013 71.954 160.001 55.994" viewBox="20.013 71.954 160.001 55.994" height="200" width="200" xmlns="http://www.w3.org/2000/svg" data-type="color" role="presentation" aria-hidden="true" aria-label="">
    <g>
        <path d="M173.711 79.681c0 .838-.685 1.517-1.53 1.517a1.525 1.525 0 0 1-1.531-1.517c0-.838.687-1.517 1.531-1.517.844 0 1.53.679 1.53 1.517z" fill="#C6D20E" data-color="1"></path>
        <path fill="#EFEBE6" d="M170.614 88.935l-2.291 3.929-2.287-3.929h4.578z" data-color="2"></path>
        <path fill="#EFEBE6" d="M165.101 88.935l-2.288 3.929-2.289-3.929h4.577z" data-color="2"></path>
        <path fill="#EFEBE6" d="M159.589 88.935l-2.288 3.929-2.289-3.929h4.577z" data-color="2"></path>
        <path fill="#EFEBE6" d="M154.077 88.935l-2.288 3.929-2.289-3.929h4.577z" data-color="2"></path>
        <path fill="#EFEBE6" d="M148.566 88.935l-2.289 3.929-2.288-3.929h4.577z" data-color="2"></path>
        <path fill="#EFEBE6" d="M143.053 88.935l-2.289 3.929-2.289-3.929h4.578z" data-color="2"></path>
        <path fill="#C6D20E" d="M76.58 105.164l-1.232 2.446-1.229-2.446h2.461z" data-color="1"></path>
        <path fill="#C6D20E" d="M73.387 105.164l-1.23 2.446-1.231-2.446h2.461z" data-color="1"></path>
        <path fill="#C6D20E" d="M70.193 105.164l-1.23 2.446-1.231-2.446h2.461z" data-color="1"></path>
        <g opacity=".9">
            <path d="M76.581 105.164l-1.232 2.446-1.229-2.446h2.461z"></path>
            <path d="M73.388 105.164l-1.23 2.446-1.231-2.446h2.461z"></path>
            <path d="M70.194 105.164l-1.23 2.446-1.231-2.446h2.461z"></path>
        </g>
        <path fill="#C6D20E" d="M133.577 105.68l-1.23 2.446-1.231-2.446h2.461z" data-color="1"></path>
        <path fill="#C6D20E" d="M130.614 105.68l-1.23 2.446-1.232-2.446h2.462z" data-color="1"></path>
        <path fill="#C6D20E" d="M127.649 105.68l-1.23 2.446-1.232-2.446h2.462z" data-color="1"></path>
        <g opacity=".9">
            <path d="M133.578 105.68l-1.23 2.446-1.231-2.446h2.461z"></path>
            <path d="M130.615 105.68l-1.23 2.446-1.232-2.446h2.462z"></path>
            <path d="M127.65 105.68l-1.23 2.446-1.232-2.446h2.462z"></path>
        </g>
        <path d="M129.721 105.687h-4.552v-4.677H76.568v4.161h-8.83v-3.912H46.819c-14.583 0-26.405 11.719-26.405 26.171l-.336-2.978v-7.29c0-21.179 17.325-38.352 38.695-38.352h64.025l12.929.437h44.286c0 5.359-4.382 9.701-9.789 9.701h-9.541l-2.228.023h-22.931l-.668-.203a9.757 9.757 0 0 0 8.974 5.874h8.694l1.618.017h11.991c3.924 0 7.106 3.152 7.106 7.042H133.57v3.986h-3.849" fill="#C6D20E" data-color="1"></path>
        <path d="M124.906 101.188c-.633-3.731-3.9-6.578-7.845-6.578H84.54c-3.945 0-7.212 2.847-7.845 6.578h48.211z" fill="#F0ED99" data-color="3"></path>
        <path d="M47.632 101.334h20.102c-.643-3.79-3.962-6.682-7.969-6.682l-15.543-.039c-26.044 4.653-23.546 33.335-23.546 33.335 0-14.68 12.009-26.585 26.822-26.585h20.313" fill="#F0ED99" data-color="3"></path>
        <path fill="#C6D20E" d="M93.779 94.598v6.59h-.637v-6.59h.637z" data-color="1"></path>
        <path fill="#C6D20E" d="M89.32 94.598v6.59h-.637v-6.59h.637z" data-color="1"></path>
        <path fill="#C6D20E" d="M91.549 94.598v6.59h-.637v-6.59h.637z" data-color="1"></path>
        <path fill="#C6D20E" d="M98.236 94.598v6.59h-.637v-6.59h.637z" data-color="1"></path>
        <path fill="#C6D20E" d="M96.007 94.598v6.59h-.637v-6.59h.637z" data-color="1"></path>
        <path d="M79.768 101.188h.637v-5.435c-.22.133-.431.279-.637.432v5.003z" fill="#C6D20E" data-color="1"></path>
        <path d="M77.539 101.188h.637v-3.415a7.86 7.86 0 0 0-.637.989v2.426z" fill="#C6D20E" data-color="1"></path>
        <path fill="#C6D20E" d="M87.091 94.598v6.59h-.637v-6.59h.637z" data-color="1"></path>
        <path fill="#C6D20E" d="M100.465 94.598v6.59h-.637v-6.59h.637z" data-color="1"></path>
        <path d="M84.225 94.612v6.576h.637v-6.59h-.322c-.106 0-.21.01-.315.014z" fill="#C6D20E" data-color="1"></path>
        <path d="M81.997 101.188h.637v-6.355a8.028 8.028 0 0 0-.637.185v6.17z" fill="#C6D20E" data-color="1"></path>
        <path d="M117.66 101.188h.637V94.7a8.86 8.86 0 0 0-.637-.075v6.563z" fill="#C6D20E" data-color="1"></path>
        <path d="M119.888 101.188h.637v-5.802a8.025 8.025 0 0 0-.637-.273v6.075z" fill="#C6D20E" data-color="1"></path>
        <path fill="#C6D20E" d="M116.068 94.598v6.59h-.637v-6.59h.637z" data-color="1"></path>
        <path fill="#C6D20E" d="M102.694 94.598v6.59h-.637v-6.59h.637z" data-color="1"></path>
        <path d="M122.117 96.406v4.781h.637v-4.203a8.135 8.135 0 0 0-.637-.578z" fill="#C6D20E" data-color="1"></path>
        <path fill="#C6D20E" d="M109.381 94.598v6.59h-.637v-6.59h.637z" data-color="1"></path>
        <path fill="#C6D20E" d="M104.923 94.598v6.59h-.637v-6.59h.637z" data-color="1"></path>
        <path fill="#C6D20E" d="M107.152 94.598v6.59h-.637v-6.59h.637z" data-color="1"></path>
        <path fill="#C6D20E" d="M113.838 94.598v6.59h-.637v-6.59h.637z" data-color="1"></path>
        <path fill="#C6D20E" d="M111.61 94.598v6.59h-.637v-6.59h.637z" data-color="1"></path>
        <path d="M32.577 99.281l3.383 4.665c.163-.077.33-.148.495-.222l-3.316-4.831c-.191.127-.377.257-.562.388z" fill="#C6D20E" data-color="1"></path>
        <path d="M30.692 100.749l3.571 4.08c.16-.09.317-.184.479-.271l-3.525-4.247c-.179.145-.354.29-.525.438z" fill="#C6D20E" data-color="1"></path>
        <path d="M41.163 95.307l1.943 6.417c.178-.029.355-.058.534-.083l-1.827-6.509c-.221.056-.435.116-.65.175z" fill="#C6D20E" data-color="1"></path>
        <path d="M28.957 102.39l3.632 3.458c.157-.104.318-.202.477-.303l-3.63-3.641c-.161.161-.322.323-.479.486z" fill="#C6D20E" data-color="1"></path>
        <path d="M27.396 104.188l3.566 2.839c.152-.119.302-.241.457-.356l-3.596-3.011c-.145.174-.287.35-.427.528z" fill="#C6D20E" data-color="1"></path>
        <path d="M26.011 106.111l3.367 2.241c.147-.134.299-.263.449-.393l-3.439-2.409a27.5 27.5 0 0 0-.377.561z" fill="#C6D20E" data-color="1"></path>
        <path d="M38.91 96.019l2.357 6.074c.173-.041.345-.082.52-.118l-2.238-6.179c-.217.072-.428.147-.639.223z" fill="#C6D20E" data-color="1"></path>
        <path d="M34.592 98l3.104 5.204c.166-.065.33-.133.498-.195l-3.006-5.338c-.201.108-.4.217-.596.329z" fill="#C6D20E" data-color="1"></path>
        <path d="M36.711 96.911l2.749 5.669c.17-.053.343-.099.515-.148l-2.641-5.792c-.21.089-.42.178-.623.271z" fill="#C6D20E" data-color="1"></path>
        <path d="M20.677 123.684l.343.028c.035-.215.075-.428.115-.641l-.417-.04c-.016.224-.03.441-.041.653z" fill="#C6D20E" data-color="1"></path>
        <path d="M20.865 121.4l.615.082c.053-.211.112-.419.171-.628l-.709-.104c-.028.22-.053.436-.077.65z" fill="#C6D20E" data-color="1"></path>
        <path d="M21.176 119.125l.96.178c.071-.205.139-.41.215-.612l-1.063-.215c-.04.219-.077.434-.112.649z" fill="#C6D20E" data-color="1"></path>
        <path d="M21.613 116.862l1.357.331c.088-.197.176-.393.268-.588l-1.476-.386c-.051.216-.101.431-.149.643z" fill="#C6D20E" data-color="1"></path>
        <path d="M24.803 108.138l3.065 1.703c.139-.149.281-.295.424-.441l-3.162-1.85c-.111.196-.221.392-.327.588z" fill="#C6D20E" data-color="1"></path>
        <path d="M43.59 94.57l1.311 6.914c.181-.017.363-.028.544-.041l-1.199-7.001c-.221.04-.438.085-.656.128z" fill="#C6D20E" data-color="1"></path>
        <path d="M23.769 110.245l2.681 1.238c.129-.163.256-.328.389-.487l-2.792-1.359a30.02 30.02 0 0 0-.278.608z" fill="#C6D20E" data-color="1"></path>
        <path d="M22.184 114.621l1.79.552c.104-.188.214-.371.323-.556l-1.923-.631a49.27 49.27 0 0 0-.19.635z" fill="#C6D20E" data-color="1"></path>
        <path d="M22.899 112.411l2.243.852c.118-.176.24-.349.362-.522l-2.372-.954c-.08.208-.158.416-.233.624z" fill="#C6D20E" data-color="1"></path>
        <path fill="#C6D20E" d="M64.636 101.359v.005h-.643v-.005h.643z" data-color="1"></path>
        <path d="M59.498 94.652l-.01 6.683h.644l.01-6.665c-.125-.006-.25-.017-.376-.017l-.268-.001z" fill="#C6D20E" data-color="1"></path>
        <path fill="#C6D20E" d="M60.132 101.352v.012h-.644v-.012h.644z" data-color="1"></path>
        <path fill="#C6D20E" d="M62.383 101.355v.008h-.643v-.008h.643z" data-color="1"></path>
        <path fill="#C6D20E" d="M57.885 94.647v6.687h-.644v-6.687h.644z" data-color="1"></path>
        <path d="M63.993 101.334h.643l.008-5.048a8.106 8.106 0 0 0-.643-.44l-.008 5.488z" fill="#C6D20E" data-color="1"></path>
        <path d="M61.74 101.334h.643l.01-6.241a7.79 7.79 0 0 0-.643-.19l-.01 6.431z" fill="#C6D20E" data-color="1"></path>
        <path d="M45.978 94.618l.425 6.789c.204-.011.409-.014.614-.021l-.388-6.767-.651-.001z" fill="#C6D20E" data-color="1"></path>
        <path fill="#C6D20E" d="M66.888 101.362v.002h-.643v-.002h.643z" data-color="1"></path>
        <path fill="#C6D20E" d="M57.879 101.349v.015h-.644v-.015h.644z" data-color="1"></path>
        <path d="M66.245 101.334h.643l.004-2.43a7.966 7.966 0 0 0-.642-1.005l-.005 3.435z" fill="#C6D20E" data-color="1"></path>
        <path fill="#C6D20E" d="M48.875 94.624v6.71h-.644v-6.71h.644z" data-color="1"></path>
        <path fill="#C6D20E" d="M51.128 94.63v6.705h-.644V94.63h.644z" data-color="1"></path>
        <path fill="#C6D20E" d="M51.122 101.339v.025h-.644v-.025h.644z" data-color="1"></path>
        <path fill="#C6D20E" d="M48.869 101.336v.028h-.643v-.028h.643z" data-color="1"></path>
        <path fill="#C6D20E" d="M54.983 101.334h.644l.01-6.692-.643-.002-.011 6.694z" data-color="1"></path>
        <path fill="#C6D20E" d="M55.627 101.345v.018h-.644v-.018h.644z" data-color="1"></path>
        <path fill="#C6D20E" d="M53.375 101.342v.021h-.644v-.021h.644z" data-color="1"></path>
        <path fill="#C6D20E" d="M53.38 94.635v6.699h-.644v-6.699h.644z" data-color="1"></path>
        <path d="M58.708 83.866h64.025l12.929.437h42.84a9.581 9.581 0 0 0 1.446-5.056h-44.286l-12.929-.437H58.708c-21.37 0-38.695 17.173-38.695 38.352v5.056c0-21.179 17.325-38.352 38.695-38.352z" fill="#C6D20E" data-color="1"></path>
        <path d="M123.349 80.63c0-3.388 2.772-6.135 6.19-6.135s6.188 2.747 6.188 6.135" fill="#C6D20E" data-color="1"></path>
        <path d="M135.727 79.247l-.165-.006a6.176 6.176 0 0 0-6.023-4.746 6.185 6.185 0 0 0-5.92 4.342l-.82-.028H58.774c-21.37 0-38.695 17.173-38.695 38.352v5.056c0-21.179 17.325-38.352 38.695-38.352h64.025l12.929.437h42.84a9.581 9.581 0 0 0 1.446-5.056h-44.287z" opacity=".2"></path>
        <path fill="#C6D20E" d="M55.625 79.115l3.553-3.135 3.554 3.135h-7.107z" data-color="1"></path>
        <path fill="#C6D20E" d="M64.182 79.115l3.554-3.135 3.554 3.135h-7.108z" data-color="1"></path>
        <path fill="#C6D20E" d="M72.74 79.115l3.554-3.135 3.554 3.135H72.74z" data-color="1"></path>
        <path fill="#C6D20E" d="M81.3 79.115l3.551-3.135 3.554 3.135H81.3z" data-color="1"></path>
        <path fill="#C6D20E" d="M89.857 79.115l3.553-3.135 3.554 3.135h-7.107z" data-color="1"></path>
        <path fill="#C6D20E" d="M98.415 79.115l3.555-3.135 3.552 3.135h-7.107z" data-color="1"></path>
        <path fill="#C6D20E" d="M106.973 79.115l3.553-3.135 3.553 3.135h-7.106z" data-color="1"></path>
        <path fill="#C6D20E" d="M115.531 79.115l3.554-3.135 3.552 3.135h-7.106z" data-color="1"></path>
        <path fill="#C6D20E" d="M47.346 80.493l2.901-3.739 4.082 2.424-6.983 1.315z" data-color="1"></path>
        <path fill="#C6D20E" d="M39.784 83.708l1.961-4.297 4.533 1.434-6.494 2.863z" data-color="1"></path>
        <path fill="#C6D20E" d="M55.785 83.968l3.553-3.137 3.554 3.137h-7.107z" data-color="1"></path>
        <path fill="#C6D20E" d="M64.342 83.968l3.554-3.137 3.554 3.137h-7.108z" data-color="1"></path>
        <path fill="#C6D20E" d="M72.901 83.968l3.552-3.137 3.555 3.137h-7.107z" data-color="1"></path>
        <path fill="#C6D20E" d="M81.459 83.968l3.554-3.137 3.553 3.137h-7.107z" data-color="1"></path>
        <path fill="#C6D20E" d="M90.017 83.968l3.553-3.137 3.553 3.137h-7.106z" data-color="1"></path>
        <path fill="#C6D20E" d="M98.575 83.968l3.553-3.137 3.553 3.137h-7.106z" data-color="1"></path>
        <path fill="#C6D20E" d="M107.132 83.968l3.555-3.137 3.552 3.137h-7.107z" data-color="1"></path>
        <path fill="#C6D20E" d="M115.69 83.968l3.555-3.137 3.553 3.137h-7.108z" data-color="1"></path>
        <path fill="#C6D20E" d="M47.807 85.345l2.987-3.67 4.024 2.518-7.011 1.152z" data-color="1"></path>
        <path fill="#C6D20E" d="M39.679 88.717l1.97-4.293 4.53 1.444-6.5 2.849z" data-color="1"></path>
        <path fill="#C6D20E" d="M33.27 88.23l1.15-4.575 4.719.603-5.869 3.972z" data-color="1"></path>
        <path fill="#C6D20E" d="M32.655 93.52l1.112-4.586 4.724.566-5.836 4.02z" data-color="1"></path>
        <g opacity=".9">
            <path d="M55.625 79.115l3.553-3.135 3.554 3.135h-7.107z"></path>
            <path d="M64.182 79.115l3.554-3.135 3.554 3.135h-7.108z"></path>
            <path d="M72.74 79.115l3.554-3.135 3.554 3.135H72.74z"></path>
            <path d="M81.3 79.115l3.551-3.135 3.554 3.135H81.3z"></path>
            <path d="M89.857 79.115l3.553-3.135 3.554 3.135h-7.107z"></path>
            <path d="M98.415 79.115l3.555-3.135 3.552 3.135h-7.107z"></path>
            <path d="M106.973 79.115l3.553-3.135 3.553 3.135h-7.106z"></path>
            <path d="M115.531 79.115l3.554-3.135 3.552 3.135h-7.106z"></path>
            <path d="M47.346 80.493l2.901-3.739 4.082 2.424-6.983 1.315z"></path>
            <path d="M39.784 83.708l1.961-4.297 4.533 1.434-6.494 2.863z"></path>
            <path d="M55.785 83.968l3.553-3.137 3.554 3.137h-7.107z"></path>
            <path d="M64.342 83.968l3.554-3.137 3.554 3.137h-7.108z"></path>
            <path d="M72.901 83.968l3.552-3.137 3.555 3.137h-7.107z"></path>
            <path d="M81.459 83.968l3.554-3.137 3.553 3.137h-7.107z"></path>
            <path d="M90.017 83.968l3.553-3.137 3.553 3.137h-7.106z"></path>
            <path d="M98.575 83.968l3.553-3.137 3.553 3.137h-7.106z"></path>
            <path d="M107.132 83.968l3.555-3.137 3.552 3.137h-7.107z"></path>
            <path d="M115.69 83.968l3.555-3.137 3.553 3.137h-7.108z"></path>
            <path d="M47.807 85.345l2.987-3.67 4.024 2.518-7.011 1.152z"></path>
            <path d="M39.679 88.717l1.97-4.293 4.53 1.444-6.5 2.849z"></path>
            <path d="M33.27 88.23l1.15-4.575 4.719.603-5.869 3.972z"></path>
            <path d="M32.655 93.52l1.112-4.586 4.724.566-5.836 4.02z"></path>
        </g>
        <path fill="#C6D20E" d="M127.837 73.443l-.591.164-.364-1.285.59-.164.365 1.285z" data-color="1"></path>
        <path fill="#C6D20E" d="M130.009 71.954l.61.05-.11 1.332-.61-.05.11-1.332z" data-color="1"></path>
        <path fill="#C6D20E" d="M132.906 73.959l-.562-.242.534-1.226.563.243-.535 1.225z" data-color="1"></path>
        <path d="M131.232 79.889c0 .838-.685 1.517-1.531 1.517s-1.531-.679-1.531-1.517c0-.839.685-1.517 1.531-1.517s1.531.679 1.531 1.517z" fill="#C6D20E" data-color="1"></path>
        <path fill="#C6D20E" d="M123.595 76.198l-.355.495-1.099-.773.354-.494 1.1.772z" data-color="1"></path>
        <path fill="#C6D20E" d="M125.352 74.414l-.47.389-.865-1.023.47-.391.865 1.025z" data-color="1"></path>
        <path fill="#C6D20E" d="M135.099 75.571l-.431-.433.96-.938.43.433-.959.938z" data-color="1"></path>
        <path fill="#C6D20E" d="M136.356 77.757l-.242-.558 1.237-.53.243.558-1.238.53z" data-color="1"></path>
        <g opacity=".9">
            <path d="M127.835 73.443l-.59.164-.365-1.285.59-.164.365 1.285z"></path>
            <path d="M130.007 71.954l.61.05-.11 1.332-.61-.05.11-1.332z"></path>
            <path d="M132.904 73.959l-.562-.242.535-1.226.562.243-.535 1.225z"></path>
            <path d="M131.23 79.889c0 .838-.685 1.517-1.531 1.517a1.524 1.524 0 0 1-1.531-1.517c0-.839.685-1.517 1.531-1.517.845 0 1.531.679 1.531 1.517z"></path>
            <path d="M123.593 76.198l-.355.495-1.099-.773.355-.494 1.099.772z"></path>
            <path d="M125.35 74.414l-.47.389-.865-1.023.47-.391.865 1.025z"></path>
            <path d="M135.097 75.571l-.431-.433.96-.938.43.433-.959.938z"></path>
            <path d="M136.354 77.757l-.242-.558 1.237-.53.243.558-1.238.53z"></path>
        </g>
        <path d="M173.711 79.681c0 .838-.685 1.517-1.53 1.517a1.525 1.525 0 0 1-1.531-1.517c0-.838.687-1.517 1.531-1.517.844 0 1.53.679 1.53 1.517z" opacity=".9"></path>
    </g>
</svg>